FILE "Angelus 2 - Holy Night (199x)(Asmik)(JP)(proto)[AKA Angels 2].bin" BINARY
  TRACK 01 AUDIO
    INDEX 01 00:00:00
  TRACK 02 MODE1/2352
    PREGAP 00:03:00
    INDEX 01 00:44:65
  TRACK 03 AUDIO
    PREGAP 00:02:00
    INDEX 01 03:51:48
  TRACK 04 AUDIO
    INDEX 00 07:35:19
    INDEX 01 07:37:19
  TRACK 05 AUDIO
    INDEX 00 11:40:70
    INDEX 01 11:42:70
